<svg width="204" height="44" viewBox="0 0 204 44" fill="none" xmlns="http://www.w3.org/2000/svg">
<path d="M5.54636 4.33274H0V17.1634C1.14493 17.2714 2.28935 17.38 3.43347 17.4885C4.13787 17.5553 4.84216 17.6222 5.54636 17.6888V4.33274Z" transform="translate(0.469543 0.595215)" fill="black"/>
<path d="M5.54636 19.9009C3.69661 19.7062 1.84779 19.5035 0 19.2925V23.1585C1.85005 23.187 3.69888 23.2155 5.54636 23.2441V19.9009Z" transform="translate(0.469543 0.595215)" fill="black"/>
<path d="M7.93227 23.281V20.1476C9.72628 20.3298 11.5212 20.5046 13.3169 20.6723V23.3643C11.5231 23.3365 9.72824 23.3087 7.93227 23.281Z" transform="translate(0.469543 0.595215)" fill="black"/>
<path d="M5.54636 24.9544C3.69744 24.9182 1.84861 24.8822 0 24.8466V39.0647H5.54636V24.9544Z" transform="translate(0.469543 0.595215)" fill="black"/>
<path d="M7.93227 25.0014C9.727 25.0368 11.5219 25.0725 13.3169 25.1084V39.0647H7.93227V25.0014Z" transform="translate(0.469543 0.595215)" fill="black"/>
<path d="M21.1232 25.2659L35.6371 43.4043V25.5634C33.8422 25.5263 32.0474 25.4894 30.2525 25.4525V27.8534L28.2964 25.4124C25.9052 25.3633 23.5141 25.3145 21.1232 25.2659Z" transform="translate(0.469543 0.595215)" fill="black"/>
<path d="M30.2525 23.6258C32.0481 23.6534 33.8429 23.6809 35.6371 23.7084V22.4103C33.842 22.2967 32.047 22.1772 30.2525 22.0516V23.6258Z" transform="translate(0.469543 0.595215)" fill="black"/>
<path d="M25.3134 21.6898L26.8225 23.573C24.4432 23.5363 22.0626 23.4995 19.6802 23.4627L17.7686 21.0737C20.2823 21.2922 22.7974 21.4974 25.3134 21.6898Z" transform="translate(0.469543 0.595215)" fill="black"/>
<path d="M23.3554 19.2464L7.93227 0V17.9139C9.72731 18.0824 11.522 18.2486 13.3169 18.4101V15.5103L15.8144 18.6315C18.3267 18.8505 20.8399 19.0578 23.3554 19.2464Z" transform="translate(0.469543 0.595215)" fill="black"/>
<path d="M30.2525 19.7215C32.0474 19.837 33.8422 19.9469 35.6371 20.0513V4.33274H30.2525V19.7215Z" transform="translate(0.469543 0.595215)" fill="black"/>
<path d="M45.5473 22.979C45.5691 23.2744 45.5979 23.5682 45.6335 23.8603C47.5001 23.8885 49.3662 23.9165 51.2318 23.9444C51.1928 23.715 51.1598 23.4838 51.1328 23.2505C49.2709 23.1656 47.409 23.0752 45.5473 22.979Z" transform="translate(0.469543 0.595215)" fill="black"/>
<path d="M51.0679 20.8139C49.2195 20.7384 47.3713 20.6573 45.5232 20.5705C45.677 17.7488 46.4817 15.089 47.9277 12.6182C49.5348 9.845 51.7165 7.63366 54.4513 6.01248C57.2029 4.35409 60.2031 3.51951 63.4122 3.51951C66.6397 3.51951 69.6417 4.33615 72.3747 5.97277C75.0858 7.59636 77.2411 9.81059 78.8202 12.585C80.4345 15.3464 81.246 18.3537 81.2475 21.5679C79.3983 21.55 77.5492 21.5271 75.7003 21.4991C75.6752 19.2677 75.1217 17.2159 74.0378 15.3083C72.9211 13.3432 71.4249 11.8065 69.5294 10.6675L69.5213 10.6627L69.5133 10.6578C67.633 9.50479 65.613 8.93431 63.4122 8.93431C61.1801 8.93431 59.1475 9.50698 57.2707 10.6578L57.2626 10.6627L57.2546 10.6675C55.3579 11.8073 53.8456 13.3466 52.7012 15.3165C51.732 17.0248 51.188 18.8488 51.0679 20.8139Z" transform="translate(0.469543 0.595215)" fill="black"/>
<path d="M67.9073 26.2246L72.2267 30.5135C73.0809 29.5788 73.7971 28.5161 74.3771 27.3183L74.3819 27.3082L74.387 27.2982C74.5408 26.9887 74.6813 26.6759 74.8081 26.3596C76.7429 26.3951 78.6778 26.4306 80.6125 26.466C80.3173 27.5609 79.9189 28.6267 79.4169 29.6617C78.5561 31.4364 77.4605 33.0196 76.1335 34.4034L81.3215 39.5527H73.5383L71.7483 37.7527C69.1791 39.1672 66.3764 39.878 63.3718 39.878C60.1519 39.878 57.1439 39.024 54.3887 37.3309C51.6652 35.6571 49.4896 33.4237 47.8848 30.653L47.878 30.6411L47.8713 30.6292C46.9986 29.0767 46.3651 27.4573 45.9729 25.7767C47.8902 25.8162 49.8076 25.8557 51.725 25.8952C51.9798 26.6461 52.3062 27.3757 52.7039 28.0857C53.8486 30.0544 55.3624 31.6085 57.2628 32.7755C59.1427 33.9033 61.1655 34.4632 63.3718 34.4632C64.8668 34.4632 66.2907 34.1982 67.655 33.6595L60.0164 26.0649C62.6467 26.1185 65.277 26.1717 67.9073 26.2246Z" transform="translate(0.469543 0.595215)" fill="black"/>
<path d="M82.0505 26.4924V28.6113C82.0505 30.7626 82.5093 32.7476 83.4983 34.4968C84.471 36.217 85.8309 37.5694 87.5503 38.5187L87.5644 38.5265L87.5785 38.534C89.2935 39.447 91.2026 39.878 93.2544 39.878C95.3052 39.878 97.2081 39.4473 98.9051 38.5258L98.9115 38.5223L98.918 38.5187C100.644 37.5659 101.997 36.2047 102.945 34.4692L102.949 34.4617L102.953 34.4541C103.899 32.6876 104.337 30.6917 104.337 28.5299V26.9019C102.488 26.8678 100.639 26.8338 98.7906 26.7998V28.5706C98.7906 29.931 98.5153 31.0006 98.0448 31.8523L98.0409 31.8594L98.037 31.8666C97.585 32.6998 96.9627 33.3268 96.1354 33.7823C95.3152 34.2218 94.3575 34.4632 93.2139 34.4632C92.0866 34.4632 91.1196 34.2155 90.2688 33.7508C89.4624 33.2962 88.8246 32.661 88.3377 31.8027C87.8675 30.9476 87.5968 29.8925 87.5968 28.5706V26.5941C85.748 26.5602 83.8993 26.5263 82.0505 26.4924Z" transform="translate(0.469543 0.595215)" fill="black"/>
<path d="M98.7906 21.5909C100.639 21.5782 102.488 21.5609 104.337 21.539V4.33274H98.7906V21.5909Z" transform="translate(0.469543 0.595215)" fill="black"/>
<path d="M107.064 26.9521L101.198 39.0647H107.3L112.92 27.4354H126.39L132.132 39.0647H142.76V32.5583L148.931 39.0647H156.472L145.726 27.6721C142.902 27.6189 140.078 27.5658 137.254 27.5129V37.0662L132.573 27.4253C124.071 27.2665 115.568 27.109 107.064 26.9521Z" transform="translate(0.469543 0.595215)" fill="black"/>
<path d="M137.254 25.354C140.98 25.412 144.837 25.4619 148.671 25.5016C149.473 24.8548 150.178 24.1082 150.783 23.2657C149.876 23.2912 148.969 23.3118 148.062 23.3262C144.461 23.3906 140.858 23.4654 137.254 23.5471V25.354Z" transform="translate(0.469543 0.595215)" fill="black"/>
<path d="M130.764 23.7009L131.52 25.2563C119.274 25.029 109.559 24.7189 108.731 24.4141C108.883 24.3863 109.012 24.3548 109.126 24.3269C109.284 24.2883 109.414 24.2567 109.535 24.252C111.689 24.1959 113.844 24.139 116 24.082C120.92 23.9521 125.842 23.822 130.764 23.7009Z" transform="translate(0.469543 0.595215)" fill="black"/>
<path d="M129.438 20.9692L119.687 0.886727L109.723 21.4624C111.764 21.4285 113.806 21.3893 115.849 21.3447L119.629 13.4738L123.399 21.1574C125.412 21.1001 127.425 21.0367 129.438 20.9692Z" transform="translate(0.469543 0.595215)" fill="black"/>
<path d="M137.254 20.6892C139.089 20.6202 140.925 20.5496 142.76 20.4787V9.85862C144.217 10.0801 145.231 10.6188 145.944 11.3499L145.951 11.3568L145.958 11.3637C146.938 12.3489 147.565 13.8583 147.565 16.2094C147.565 17.4343 147.286 18.5077 146.749 19.4726C146.569 19.7858 146.369 20.0773 146.147 20.3479C148.24 20.2673 150.333 20.1873 152.426 20.11C152.857 18.8608 153.071 17.5432 153.071 16.1687C153.071 12.6562 152.089 9.64291 149.849 7.45658C147.642 5.27657 144.618 4.33274 141.099 4.33274H137.254V20.6892Z" transform="translate(0.469543 0.595215)" fill="black"/>
<path d="M158.607 22.9584V25.5813C160.506 25.5917 162.361 25.5989 164.154 25.6027V22.7058C162.78 22.7646 161.407 22.8285 160.033 22.8923C159.558 22.9144 159.083 22.9365 158.607 22.9584Z" transform="translate(0.469543 0.595215)" fill="black"/>
<path d="M164.154 19.5409C162.305 19.6528 160.457 19.7569 158.607 19.8493V9.74754H151.612V4.33274H203.132V9.74754H196.218V17.8908C194.369 17.9458 192.52 18.003 190.671 18.0622V9.74754H176.444V18.6643C175.936 18.7066 175.429 18.7509 174.922 18.7953C173.579 18.9125 172.237 19.0298 170.897 19.1096V9.74754H164.154V19.5409Z" transform="translate(0.469543 0.595215)" fill="black"/>
<path d="M170.897 22.4792V25.5982C177.506 25.5728 182.523 25.4796 184.41 25.2974V22.7955C179.902 22.4308 175.399 22.3841 170.897 22.4792Z" transform="translate(0.469543 0.595215)" fill="black"/>
<path d="M190.671 28.9869V39.0647H196.218V28.4988C194.489 28.6176 192.749 28.7859 190.936 28.9612C190.848 28.9698 190.76 28.9783 190.671 28.9869Z" transform="translate(0.469543 0.595215)" fill="black"/>
<path d="M176.444 28.2627C174.785 28.2352 173.126 28.2005 171.467 28.1657C171.277 28.1617 171.087 28.1578 170.897 28.1538V39.0647H185.987V33.6499H176.444V28.2627Z" transform="translate(0.469543 0.595215)" fill="black"/>
<path d="M164.154 28.0221C162.305 27.9867 160.456 27.9514 158.607 27.9161V39.0647H164.154V28.0221Z" transform="translate(0.469543 0.595215)" fill="black"/>
<path d="M87.5968 21.6098C85.7479 21.6032 83.8991 21.5918 82.0505 21.5753V4.33274H87.5968V21.6098Z" transform="translate(0.469543 0.595215)" fill="black"/>
</svg>
