<svg width="390" height="85" viewBox="0 0 390 85" version="1.1" xmlns="http://www.w3.org/2000/svg" xmlns:xlink="http://www.w3.org/1999/xlink">
<g id="Canvas" fill="none">
<g id="logo-white">
<path d="M 365.138 55.5554L 365.138 74.8703L 375.759 74.8703L 375.759 54.6199C 372.449 54.8477 369.116 55.1703 365.645 55.5063C 365.476 55.5226 365.307 55.539 365.138 55.5554Z" transform="translate(0.5 0.834717)" fill="white"/>
<path fill-rule="evenodd" clip-rule="evenodd" d="M 306.174 43.8883C 306.179 43.888 306.184 43.8878 306.189 43.8876L 306.197 43.8872C 306.189 43.8876 306.182 43.8879 306.174 43.8883Z" transform="translate(0.5 0.834717)" fill="white"/>
<path d="M 303.735 38.0426C 307.277 37.8655 310.816 37.6659 314.356 37.4515L 314.356 18.6818L 327.27 18.6818L 327.27 36.6249C 329.835 36.472 332.404 36.2474 334.975 36.0226L 334.977 36.0224C 335.949 35.9375 336.92 35.8525 337.892 35.7714L 337.892 18.6818L 365.138 18.6818L 365.138 34.6175C 368.678 34.5041 372.219 34.3945 375.759 34.289L 375.759 18.6818L 389 18.6818L 389 8.30399L 290.339 8.30399L 290.339 18.6818L 303.735 18.6818L 303.735 38.0426Z" transform="translate(0.5 0.834717)" fill="white"/>
<path d="M 327.27 43.083L 327.27 49.0608C 339.926 49.012 349.533 48.8334 353.146 48.4842L 353.146 43.6892C 344.515 42.9902 335.892 42.9007 327.27 43.083Z" transform="translate(0.5 0.834717)" fill="white"/>
<path d="M 337.892 54.1674C 334.715 54.1147 331.538 54.0482 328.36 53.9816L 327.27 53.9588L 327.27 74.8703L 356.166 74.8703L 356.166 64.4925L 337.892 64.4925L 337.892 54.1674Z" transform="translate(0.5 0.834717)" fill="white"/>
<path d="M 314.356 53.7062C 310.816 53.6384 307.275 53.5707 303.735 53.5033L 303.735 74.8703L 314.356 74.8703L 314.356 53.7062Z" transform="translate(0.5 0.834717)" fill="white"/>
<path d="M 303.735 44.0014L 303.735 49.0283C 307.37 49.0483 310.924 49.0622 314.356 49.0693L 314.356 43.5173C 311.744 43.6293 309.132 43.7507 306.52 43.8722L 306.465 43.8748L 306.197 43.8872L 306.189 43.8876L 306.174 43.8883C 305.361 43.9261 304.548 43.9639 303.735 44.0014Z" transform="translate(0.5 0.834717)" fill="white"/>
<path d="M 262.843 39.6523C 266.358 39.5201 269.872 39.3848 273.387 39.249L 273.387 18.8947C 276.177 19.3192 278.118 20.3517 279.485 21.7528L 279.498 21.7661L 279.511 21.7792C 281.387 23.6674 282.589 26.5605 282.589 31.0664C 282.589 33.4141 282.055 35.4713 281.025 37.3206C 280.681 37.9208 280.298 38.4795 279.873 38.9982C 283.881 38.8436 287.89 38.6903 291.898 38.5422C 292.723 36.148 293.133 33.6228 293.133 30.9885C 293.133 24.2565 291.252 18.4813 286.962 14.2911C 282.737 10.1129 276.944 8.30399 270.206 8.30399L 262.843 8.30399L 262.843 39.6523Z" transform="translate(0.5 0.834717)" fill="white"/>
<path d="M 262.843 48.5927C 269.978 48.7038 277.364 48.7995 284.706 48.8756C 286.243 47.636 287.593 46.2051 288.751 44.5903C 287.015 44.6392 285.278 44.6788 283.541 44.7062C 276.644 44.8297 269.744 44.9731 262.843 45.1297L 262.843 48.5927Z" transform="translate(0.5 0.834717)" fill="white"/>
<path d="M 205.029 51.6557L 193.796 74.8703L 205.48 74.8703L 216.243 52.582L 242.038 52.582L 253.033 74.8703L 273.387 74.8703L 273.387 62.4003L 285.205 74.8703L 299.645 74.8703L 279.066 53.0355C 273.659 52.9335 268.251 52.8318 262.843 52.7304L 262.843 71.0401L 253.878 52.5626C 237.597 52.2582 221.314 51.9563 205.029 51.6557Z" transform="translate(0.5 0.834717)" fill="white"/>
<path d="M 251.861 48.4056L 250.415 45.4244C 240.989 45.6566 231.562 45.9058 222.141 46.1549C 218.013 46.264 213.886 46.3731 209.76 46.4808C 209.528 46.4897 209.281 46.5501 208.979 46.624L 208.978 46.6242C 208.759 46.6777 208.512 46.7381 208.221 46.7914C 209.807 47.3755 228.411 47.9697 251.861 48.4056Z" transform="translate(0.5 0.834717)" fill="white"/>
<path d="M 247.875 40.1889L 229.201 1.69948L 210.12 41.1341C 214.03 41.0693 217.941 40.994 221.852 40.9086L 229.09 25.8234L 236.31 40.5496C 240.166 40.4397 244.021 40.3184 247.875 40.1889Z" transform="translate(0.5 0.834717)" fill="white"/>
<path d="M 189.185 41.3804C 192.725 41.3561 196.266 41.3229 199.807 41.2809L 199.807 8.30399L 189.185 8.30399L 189.185 41.3804Z" transform="translate(0.5 0.834717)" fill="white"/>
<path d="M 157.127 41.3506C 160.668 41.3821 164.208 41.4041 167.749 41.4167L 167.749 8.30399L 157.127 8.30399L 157.127 41.3506Z" transform="translate(0.5 0.834717)" fill="white"/>
<path d="M 157.127 54.8355L 157.127 50.7745L 167.749 50.9695L 167.749 54.7575C 167.749 57.2911 168.267 59.3132 169.168 60.9521C 170.1 62.597 171.321 63.8145 172.866 64.6858C 174.495 65.5765 176.347 66.0511 178.506 66.0511C 180.696 66.0511 182.53 65.5885 184.1 64.7462C 185.684 63.8732 186.876 62.6715 187.742 61.0746L 187.749 61.0608L 187.757 61.0471C 188.658 59.4147 189.185 57.3648 189.185 54.7575L 189.185 51.3636L 199.807 51.5594L 199.807 54.6796C 199.807 58.8227 198.967 62.6482 197.156 66.0336L 197.148 66.0482L 197.141 66.0627C 195.326 69.3889 192.734 71.9977 189.429 73.8238L 189.417 73.8306L 189.404 73.8373C 186.155 75.6035 182.51 76.4289 178.583 76.4289C 174.654 76.4289 170.998 75.603 167.714 73.8531L 167.687 73.8387L 167.66 73.8238C 164.367 72.0044 161.763 69.4125 159.9 66.1156C 158.006 62.7632 157.127 58.9588 157.127 54.8355Z" transform="translate(0.5 0.834717)" fill="white"/>
<path d="M 138.315 58.4812L 130.043 50.2612C 125.006 50.16 119.969 50.0579 114.932 49.9552L 129.56 64.5108C 126.947 65.5432 124.221 66.0511 121.358 66.0511C 117.133 66.0511 113.259 64.978 109.659 62.8166C 106.02 60.58 103.121 57.6014 100.928 53.8282C 100.167 52.4675 99.5419 51.0691 99.0539 49.6299C 95.3821 49.5543 91.7102 49.4786 88.0386 49.4028C 88.7896 52.6238 90.0029 55.7275 91.674 58.703L 91.6868 58.7259L 91.6998 58.7486C 94.773 64.0589 98.9393 68.3394 104.155 71.5472C 109.431 74.7923 115.192 76.4289 121.358 76.4289C 127.111 76.4289 132.479 75.0667 137.399 72.3557L 140.827 75.8055L 155.731 75.8055L 145.796 65.9365C 148.338 63.2844 150.436 60.25 152.084 56.8488C 153.046 54.8652 153.808 52.8224 154.374 50.724L 143.258 50.5201C 143.015 51.1263 142.746 51.7258 142.452 52.3189L 142.442 52.3381L 142.433 52.3574C 141.322 54.6532 139.951 56.6899 138.315 58.4812Z" transform="translate(0.5 0.834717)" fill="white"/>
<path d="M 87.3887 45.73C 87.3204 45.1702 87.2652 44.6071 87.2235 44.0408C 90.7888 44.2252 94.3543 44.3985 97.9199 44.5613C 97.9715 45.0083 98.0347 45.4515 98.1095 45.8911C 94.5367 45.8377 90.9631 45.784 87.3887 45.73Z" transform="translate(0.5 0.834717)" fill="white"/>
<path d="M 87.1774 39.4248C 90.7165 39.5911 94.2559 39.7466 97.7956 39.8913C 98.0256 36.1251 99.0673 32.6292 100.923 29.3551C 103.115 25.5796 106.011 22.6295 109.643 20.4451L 109.659 20.4358L 109.674 20.4264C 113.268 18.2208 117.161 17.1232 121.435 17.1232C 125.65 17.1232 129.518 18.2166 133.119 20.4264L 133.134 20.4358L 133.15 20.4451C 136.779 22.628 139.645 25.5732 141.783 29.3395C 143.859 32.9954 144.919 36.9279 144.967 41.2044C 148.507 41.2582 152.049 41.3021 155.59 41.3363C 155.587 35.1762 154.033 29.4124 150.941 24.1201C 147.917 18.8027 143.79 14.559 138.598 11.4472C 133.365 8.31053 127.616 6.74538 121.435 6.74538C 115.29 6.74538 109.544 8.34492 104.275 11.5233C 99.0376 14.6305 94.8596 18.8686 91.7821 24.1836C 89.0129 28.9192 87.472 34.0169 87.1774 39.4248Z" transform="translate(0.5 0.834717)" fill="white"/>
<path d="M 44.7257 36.887L 15.1904 0L 15.1904 34.3332C 18.6279 34.6561 22.0648 34.9748 25.502 35.2843L 25.502 29.7265L 30.2847 35.7085C 35.0957 36.1283 39.9086 36.5256 44.7257 36.887Z" transform="translate(0.5 0.834717)" fill="white"/>
<path d="M 57.9339 37.7977C 61.371 38.0191 64.8081 38.2297 68.2455 38.4297L 68.2455 8.30399L 57.9339 8.30399L 57.9339 37.7977Z" transform="translate(0.5 0.834717)" fill="white"/>
<path d="M 51.3653 45.1793L 48.4754 41.5701C 43.6572 41.2012 38.8409 40.8081 34.027 40.3892L 37.6879 44.9679C 42.25 45.0385 46.809 45.109 51.3653 45.1793Z" transform="translate(0.5 0.834717)" fill="white"/>
<path d="M 57.9339 45.2805C 61.3724 45.3334 64.8095 45.3862 68.2455 45.4388L 68.2455 42.9508C 64.8077 42.7332 61.3704 42.5042 57.9339 42.2634L 57.9339 45.2805Z" transform="translate(0.5 0.834717)" fill="white"/>
<path d="M 40.4511 48.4239L 68.2455 83.1874L 68.2455 48.994C 64.8081 48.923 61.371 48.8522 57.9339 48.7815L 57.9339 53.3829L 54.188 48.7046C 49.6087 48.6106 45.0298 48.517 40.4511 48.4239Z" transform="translate(0.5 0.834717)" fill="white"/>
<path d="M 25.502 48.1221C 22.0646 48.0532 18.6273 47.9848 15.1904 47.9169L 15.1904 74.8703L 25.502 74.8703L 25.502 48.1221Z" transform="translate(0.5 0.834717)" fill="white"/>
<path d="M 15.1904 38.6143L 15.1904 44.6196L 25.502 44.7792L 25.502 39.62C 22.0633 39.2985 18.6259 38.9635 15.1904 38.6143Z" transform="translate(0.5 0.834717)" fill="white"/>
<path d="M 10.6213 38.1415C 7.07905 37.7683 3.53854 37.3798 0 36.9755L 0 44.3849C 3.54287 44.4395 7.08338 44.4942 10.6213 44.5489L 10.6213 38.1415Z" transform="translate(0.5 0.834717)" fill="white"/>
<path d="M 10.6213 47.8269C 7.08063 47.7574 3.54012 47.6885 0 47.6202L 0 74.8703L 10.6213 74.8703L 10.6213 47.8269Z" transform="translate(0.5 0.834717)" fill="white"/>
<path d="M 0 8.30399L 10.6213 8.30399L 10.6213 33.9019C 9.47918 33.7937 8.33689 33.6853 7.19445 33.5768L 6.57512 33.518L 6.36961 33.4984C 4.24709 33.2969 2.12401 33.0953 0 32.8949L 0 8.30399Z" transform="translate(0.5 0.834717)" fill="white"/>
</g>
</g>
</svg>

