<svg id="Layer_1" data-name="Layer 1" xmlns="http://www.w3.org/2000/svg" viewBox="0 0 534.31 85.2"><defs><style>.cls-1{fill:#fff;}</style></defs><title>Artboard 2 copy</title><path class="cls-1" d="M385,39.83c1.2,0,2.32-.06,3.38-.16l-7,.14v0Z"/><path class="cls-1" d="M80.07,29.85V5.46H68.79V29.1h.14C72.64,29.37,76.35,29.61,80.07,29.85Z"/><path class="cls-1" d="M68.79,35.19v4.93l11.28.17V36Q74.43,35.62,68.79,35.19Z"/><path class="cls-1" d="M68.79,80.2H80.07V45.12l-11.28-.23Z"/><path class="cls-1" d="M151.93,5.91H140.65V33q5.64.23,11.28.42Z"/><path class="cls-1" d="M86.15,80.65H97.43V45.47l-11.28-.23Z"/><path class="cls-1" d="M97.43,28.32l2.63,2.75q7.89.43,15.79.83L86.15.83V30.24c3.76.23,7.52.46,11.28.67Z"/><path class="cls-1" d="M140.65,57.85l-11.2-11.72-15.26-.32L151.93,85.2V46.59l-11.28-.23Z"/><path class="cls-1" d="M86.15,36.44v3.94l11.28.17V37.17Q91.79,36.82,86.15,36.44Z"/><path class="cls-1" d="M106.43,37.71l2.89,3,15.19.23-2.28-2.38Q114.32,38.18,106.43,37.71Z"/><path class="cls-1" d="M140.65,39.46V41.2l11.28.17V39.93Z"/><path class="cls-1" d="M230.52,60.06,219.68,49.27H205.11l17.57,17a26.31,26.31,0,0,1-13.21,3.34,27,27,0,0,1-19.12-7.93,25.34,25.34,0,0,1-7.61-14.5L171.25,47a35.58,35.58,0,0,0,12.23,23.16A38.94,38.94,0,0,0,209.86,80.2a37.65,37.65,0,0,0,20.81-6l5.86,6h14.18L238.37,68.14a37.17,37.17,0,0,0,10.19-19.71l-11.62-.21A24.8,24.8,0,0,1,230.52,60.06Z"/><path class="cls-1" d="M190.11,21.43q7.74-8.13,19.75-8.13a26.69,26.69,0,0,1,19.84,8.13A26.91,26.91,0,0,1,237,35h11.46a36.76,36.76,0,0,0-13-22.7,39,39,0,0,0-52.71,1.35A36.62,36.62,0,0,0,171.63,34c3.84.1,7.68.2,11.52.28A26.91,26.91,0,0,1,190.11,21.43Z"/><path class="cls-1" d="M262.38,4.21H251.12V35c3.75,0,7.51,0,11.26,0Z"/><path class="cls-1" d="M292,63.23q-4.68,6.42-13.24,6.43t-13.2-6.43q-3.13-4.45-3.14-14.07v-.47l-11.26-.21v3.77q0,11.8,7.35,19.44a28.41,28.41,0,0,0,40.55,0q7.35-7.64,7.35-19.44V49.49l-11.27-.2Q295.08,59,292,63.23Z"/><path class="cls-1" d="M306.37,4.21H295.11V34.55l11.26-.21Z"/><path class="cls-1" d="M295.11,41.92v1c2.68.19,6.51.38,11.26.57V41.63Z"/><path class="cls-1" d="M341.36,40.72,343,44.47l11.87.22L353,40.44Z"/><path class="cls-1" d="M316.32,41.37l-1.12,2.4c3.56.12,7.43.22,11.55.33l1.39-3Z"/><path class="cls-1" d="M335,26.1l3.24,7.43,11.45-.37L335.17.87,319.73,34q5.88-.13,11.76-.31Z"/><path class="cls-1" d="M404.74,80.2h13.78l-21.07-29L384.33,51Z"/><path class="cls-1" d="M381.39,16.15h4Q401,16.15,401,27.6a15,15,0,0,1-.44,3.66l11.18-.41a25.06,25.06,0,0,0,.23-3.39q0-10.16-7.25-16.34-6.57-5.56-21.36-5.56h-13.2V32.42L381.39,32Z"/><path class="cls-1" d="M407.4,41.09a20.67,20.67,0,0,0,1.34-1.92c-4.38.16-8.76.29-13.14.35l-7.25.15c-1.06.1-2.18.16-3.38.16h-3.58v0c-3.75.08-7.5.14-11.26.23v4.9c10.7.16,21.75.3,32.64.4A20.23,20.23,0,0,0,407.4,41.09Z"/><path class="cls-1" d="M370.13,78.7,357.44,50.44l-11.94-.22.55,1.26H323.38l.76-1.66-11.66-.22L298.24,80.2h12.13l8.32-18.13h31.95l7.83,18.13h22.92V50.89l-11.26-.21Z"/><path class="cls-1" d="M438.45,16.15h15.17V28.53l1.86-.12c3.13-.17,6.27-.42,9.41-.69V16.15h41v9.54l11.26-.35V16.15h17.12V5.56H410V16.15h17.16v14q5.64-.3,11.26-.64Z"/><path class="cls-1" d="M427.19,80.2h11.26V52l-11.26-.21Z"/><path class="cls-1" d="M427.19,38.39v7.12l11.26,0V37.88Z"/><path class="cls-1" d="M453.62,37.35v8.2c4,0,7.74,0,11.27-.06v-.82h28.2c.34-.05.62-.09.85-.14V38.27A359.55,359.55,0,0,0,453.62,37.35Z"/><path class="cls-1" d="M453.62,80.2h41.19V69.61H464.89V52.48l-11.27-.23Z"/><path class="cls-1" d="M505.93,80.2h11.26V53.75c-3.66.32-7.39.69-11.26,1.06Z"/><path class="cls-1" d="M26.7,30.82l-5.82,8.45,12.26.19,3.5-5.09v5.14l11.26.18V32.86Q37.3,31.9,26.7,30.82Z"/><path class="cls-1" d="M36.64,59.36H19.43L30,44,17.8,43.74,0,69.61H36.64V80.2H47.9V69.61h7.93V59.36H47.9v-15L36.64,44.1Z"/><path class="cls-1" d="M47.9,0,30.5,25.28q8.7.81,17.4,1.59Z"/></svg>