<svg width="210" height="39" viewBox="0 0 210 39" fill="none" xmlns="http://www.w3.org/2000/svg">
<path d="M0 -6.8045e-06V21.7953H21.7953V-6.8045e-06L10.814 10.8698L0 -6.8045e-06Z" transform="translate(0.136841 16.2549)" fill="black"/>
<path d="M21.7396 21.7953V-6.8045e-06H0V21.7953L10.8698 10.8698L21.7396 21.7953Z" transform="translate(125 16.2549)" fill="black"/>
<path d="M21.7953 -6.8045e-06H-3.40225e-06V21.7953H21.7953L10.814 10.8698L21.7953 -6.8045e-06Z" transform="translate(175.67 16.2549)" fill="black"/>
<path d="M-8.50562e-07 21.7953L10.9255 -6.8045e-06L21.7953 21.7953H-8.50562e-07Z" transform="translate(22.2109 16.2549)" fill="black"/>
<path d="M1.70112e-06 -6.8045e-06V21.7953H21.7953L1.70112e-06 -6.8045e-06Z" transform="translate(44.3406 16.2549)" fill="black"/>
<path d="M10.814 -6.8045e-06H0V21.7953H10.814V-6.8045e-06Z" transform="translate(65.9687 16.2549)" fill="black"/>
<path d="M10.814 -6.8045e-06H3.40225e-06V21.7953H10.814V-6.8045e-06Z" transform="translate(198.357 16.2549)" fill="black"/>
<path d="M1.70112e-06 21.7953V-6.8045e-06L10.9255 4.12495V-6.8045e-06H21.7953V21.7953L10.9255 17.7261V21.7953H1.70112e-06Z" transform="translate(79.1796 16.2549)" fill="black"/>
<path d="M16.2768 -1.3609e-05C10.2566 -1.3609e-05 5.46276 4.84959 5.46276 10.814H3.40225e-06C3.40225e-06 16.8342 4.84959 21.6281 10.814 21.6281C16.7785 21.6281 21.6281 16.7785 21.6281 10.814H27.0908C27.0908 4.84959 22.2412 -1.3609e-05 16.2768 -1.3609e-05Z" transform="translate(147.631 16.4219)" fill="black"/>
<path d="M1.28208 2.56414C1.99015 2.56414 2.56415 1.99014 2.56415 1.28207C2.56415 0.573998 1.99015 0 1.28208 0C0.574009 0 0 0.573998 0 1.28207C0 1.99014 0.574009 2.56414 1.28208 2.56414Z" transform="translate(111.51 25.8428)" fill="black"/>
<path d="M1.28208 2.56414C1.99015 2.56414 2.56415 1.99014 2.56415 1.28207C2.56415 0.573998 1.99015 0 1.28208 0C0.574009 0 0 0.573998 0 1.28207C0 1.99014 0.574009 2.56414 1.28208 2.56414Z" transform="translate(111.51 25.8428)" fill="black"/>
<path d="M10.814 -6.8045e-06C4.79385 -6.8045e-06 -1.70112e-06 4.8496 -1.70112e-06 10.814C-1.70112e-06 16.7785 4.8496 21.6281 10.814 21.6281C16.8342 21.6281 21.6281 16.7785 21.6281 10.814C21.6281 4.8496 16.7785 -6.8045e-06 10.814 -6.8045e-06Z" transform="translate(101.978 16.2549)" fill="black"/>
<path d="M5.40702 0C5.85296 0 6.35464 0.167221 6.57761 0.445933C6.85632 0.668903 7.02355 1.11484 7.02355 1.44929C7.02355 1.78374 6.96781 2.2297 6.74484 2.6199C6.52187 3.0101 6.2989 3.34456 5.85296 3.56753C5.40702 3.7905 5.07256 3.9577 4.73811 3.9577C4.51514 3.9577 4.4594 3.90198 4.4594 3.73475C4.4594 3.67901 4.51514 3.56752 4.51514 3.45604C4.73811 3.0101 4.90533 2.5084 4.90533 2.00671C4.90533 1.728 4.84959 1.61654 4.84959 1.61654C4.79385 1.61654 4.62662 1.67229 4.4594 1.89526C4.29217 2.11823 4.18068 2.34118 4.01346 2.67563C3.79049 3.12157 3.73474 3.67901 3.56751 4.29218C3.40029 4.79386 3.34455 5.29553 3.34455 5.74147C3.34455 6.1874 3.40029 6.52185 3.56751 6.74482C3.73474 6.96779 3.84623 7.13503 4.0692 7.13503C4.29217 7.13503 4.51514 7.07928 5.01682 6.85631C5.29553 6.63334 5.74147 6.41039 6.02018 5.96445C6.18741 5.79722 6.24315 5.74147 6.2989 5.74147C6.46612 5.74147 6.52187 5.79722 6.52187 5.96445C6.52187 6.74484 6.24316 7.41373 5.57425 8.13838C5.12831 8.58432 4.62662 8.91881 4.12494 9.14178C3.62326 9.36474 3.12158 9.53195 2.67564 9.53195C1.89524 9.53195 1.28208 9.309 0.780395 8.75157C0.334455 8.30563 -4.25281e-07 7.63671 -4.25281e-07 6.85631C-4.25281e-07 6.07592 0.167226 5.407 0.445939 4.51512C0.724651 3.73473 1.22633 2.89862 1.72802 2.17397C2.2297 1.39357 2.89861 0.891879 3.679 0.278712C4.34791 0.22297 4.79385 0 5.40702 0Z" transform="translate(29.0114 4.93945)" fill="black"/>
<path d="M3.28881 6.52185L3.23306 6.68911C3.23306 6.74485 3.23306 6.91207 3.17732 7.13504C3.12158 7.41375 3.12158 7.80393 3.12158 7.91541C3.06583 8.13838 3.06583 8.19415 2.89861 8.36138C2.84286 8.52861 2.67564 8.58432 2.61989 8.75155C2.17395 9.19749 1.67227 9.42047 1.17059 9.42047C0.780394 9.42047 0.501683 9.25325 0.278713 8.97453C0.0557433 8.69582 8.50562e-07 8.19414 8.50562e-07 7.58097C8.50562e-07 7.13503 0.0557407 6.41037 0.167226 5.68572C0.222968 4.90532 0.390198 4.29217 0.557425 3.679L0.613167 3.45602C0.613167 3.40028 0.613166 3.4003 0.668909 3.23307C0.891878 2.28545 1.11485 1.72802 1.33782 1.28208C1.56079 0.891886 1.78376 0.501696 2.11821 0.278726C2.34118 0.0557561 2.6199 1.3609e-05 3.01009 1.3609e-05C3.45603 1.3609e-05 3.79049 0.278712 3.90197 0.891879C3.95771 0.836137 4.12494 0.724638 4.12494 0.668896C4.34791 0.445926 4.40365 0.278705 4.57088 0.222963C4.62662 0.167221 4.79385 0.167234 4.84959 0.167234C5.35127 0.167234 5.74147 0.668896 5.74147 1.78374C5.74147 2.45265 5.68573 2.95434 5.5185 3.45602C5.35128 3.9577 5.23979 4.45938 5.07256 4.84958C4.84959 5.12829 4.68237 5.35127 4.40366 5.35127C4.12494 5.35127 4.12494 4.96109 4.12494 4.1807C4.12494 3.73476 4.12494 3.40028 4.0692 3.17731C4.01345 2.95434 4.01346 2.73139 3.84623 2.67564C3.62326 2.95436 3.56752 3.84622 3.45603 5.12829C3.34455 5.7972 3.28881 6.29888 3.28881 6.52185Z" transform="translate(36.5924 4.88379)" fill="black"/>
<path d="M3.45603 6.91206C3.51177 7.30226 3.73474 7.58098 4.23643 7.58098C4.73811 7.58098 5.35127 7.30225 6.13167 6.68908C6.57761 6.41037 6.91206 6.24315 7.07929 6.24315C7.30226 6.24315 7.46949 6.29888 7.58097 6.41037C7.7482 6.46611 7.80394 6.63334 7.80394 6.68908C7.80394 6.74482 7.7482 6.91208 7.52523 7.13505C7.24652 7.41376 6.74484 7.85969 6.35464 8.1384C5.9087 8.41712 5.40702 8.80729 5.07256 8.91878C4.68236 9.14175 4.18068 9.309 3.84623 9.36475C3.45603 9.53197 3.06584 9.58769 2.73138 9.58769C1.95099 9.58769 1.28208 9.36473 0.780395 8.86305C0.278713 8.36137 0 7.74819 0 6.96779C0 6.29888 0.167226 5.74147 0.390195 4.96108C0.613165 4.18068 1.05911 3.51178 1.39356 2.84287C1.8395 2.06248 2.56415 1.4493 3.28881 0.947615C4.23643 0.278705 5.07256 -1.3609e-05 5.9087 -1.3609e-05C6.57761 -1.3609e-05 7.02355 0.222963 7.358 0.668903C7.63671 1.0591 7.80394 1.61654 7.80394 2.28545C7.80394 2.73139 7.63672 3.28879 7.41375 3.90196C7.19078 4.40364 6.68909 5.01682 6.24315 5.5185C5.79721 5.96444 5.35128 6.29889 4.96108 6.52186C4.57088 6.74483 4.18068 6.80057 3.84623 6.80057C3.73474 6.9678 3.62326 6.96781 3.45603 6.91206ZM3.45603 6.52186C3.73474 6.29889 3.90197 6.13166 4.18068 5.85294C4.4594 5.46275 4.84959 4.90534 4.96108 4.40365C5.12831 4.12494 5.18405 3.62327 5.23979 3.23308C5.29553 2.78714 5.40702 2.34119 5.40702 2.00674C5.40702 1.72802 5.35128 1.50504 5.18405 1.50504C4.96108 1.50504 4.73811 1.95097 4.23643 2.78711C4.01346 3.28879 3.79049 3.90197 3.56752 4.40365C3.40029 4.90534 3.34455 5.40702 3.34455 5.79721C3.40029 6.07593 3.40029 6.24315 3.45603 6.52186Z" transform="translate(42.7798 4.71631)" fill="black"/>
<path d="M6.74484 6.6891C6.07593 7.41375 5.57424 7.97118 5.07256 8.36137C4.62662 8.80731 4.12494 9.14176 3.679 9.36473C3.2888 9.5877 2.89861 9.64344 2.50841 9.64344C1.78376 9.64344 1.22633 9.42046 0.72465 8.86304C0.278711 8.4171 8.50562e-07 7.74821 8.50562e-07 6.96781C8.50562e-07 6.52187 0.0557433 5.96444 0.278713 5.35127C0.501683 4.7381 0.780393 4.12495 1.22633 3.45605C1.95098 2.45268 2.73138 1.67227 3.79048 1.00336C4.79385 0.278712 5.9087 6.8045e-06 6.85632 6.8045e-06C7.7482 6.8045e-06 8.30563 0.167227 8.86305 0.44594C9.36473 0.724652 9.64344 1.22633 9.64344 1.72801C9.64344 2.11821 9.47622 2.50842 9.25325 2.89862C9.53196 2.89862 9.75493 2.95435 9.92215 2.95435C9.9779 3.01009 10.0894 3.17731 10.0894 3.40028C10.0894 3.34454 10.0894 3.45603 10.0336 3.79049C9.9779 4.4594 9.9779 5.01683 9.9779 5.57425C9.9779 5.85296 9.9779 6.0202 9.9779 6.24317C9.9779 6.4104 9.9779 6.52187 10.0336 6.6891C10.0336 6.91207 10.0894 6.96781 10.0894 7.13503C10.1451 7.41375 10.2566 7.80395 10.3124 8.08266C9.92216 8.47286 9.53196 8.75156 9.1975 8.97453C8.91879 9.1975 8.52859 9.42046 8.19414 9.42046C7.19078 9.42046 6.74484 8.5286 6.74484 6.96781C6.74484 6.91207 6.74484 6.74484 6.74484 6.6891ZM7.30226 4.51513L7.07929 4.57089C6.63335 4.73812 6.2989 4.79384 6.07593 4.79384C5.85296 4.79384 5.68573 4.73812 5.68573 4.57089C5.68573 4.51515 5.74147 4.40367 5.85296 4.29218C6.13167 3.7905 6.35464 3.28881 6.35464 2.78713C6.35464 2.50842 6.2989 2.28543 6.18741 2.00672C6.13167 1.78375 5.96444 1.72801 5.9087 1.72801C5.85296 1.72801 5.68573 1.78375 5.46276 2.00672C4.79385 2.67563 4.34791 3.28882 4.01346 4.01347C3.73474 4.73812 3.51177 5.29553 3.51177 5.90869C3.51177 6.18741 3.56752 6.57761 3.73474 6.85632C3.90197 7.13503 4.01346 7.13503 4.23643 7.13503C4.4594 7.13503 4.73811 6.91206 5.23979 6.46612C5.68573 6.07592 6.35464 5.51852 6.91207 4.84961L7.30226 4.51513Z" transform="translate(51.0854 4.77246)" fill="black"/>
<path d="M1.67228 3.73474L1.72802 3.67902C2.17396 2.50842 2.50841 1.67227 2.84287 1.11484C3.01009 0.891872 3.12158 0.668896 3.51177 0.445926C3.95771 0.167214 4.4594 -6.8045e-06 4.90534 -6.8045e-06C5.12831 -6.8045e-06 5.35128 0.0557288 5.57425 0.167214C5.74147 0.222956 5.79721 0.445953 5.79721 0.613181C5.79721 0.780408 5.74147 1.05909 5.5185 1.56077C5.23979 2.34117 4.84959 3.01009 4.73811 3.73474C4.79385 3.73474 4.96108 3.79047 5.01682 3.79047C5.40702 3.84622 5.68573 3.84623 5.79721 4.01346C5.85296 4.0692 6.02019 4.23643 6.02019 4.40366C6.02019 4.68237 5.96444 5.07258 5.79721 5.35129C5.62999 5.63 5.40701 5.7972 5.07256 6.02017C4.84959 6.07591 4.57088 6.18741 4.0692 6.24315C4.01346 6.46612 3.84623 6.91206 3.79049 7.24651C3.73475 7.63671 3.73474 8.19415 3.56751 8.86306C3.51177 9.08603 3.51177 9.30899 3.51177 9.5877C3.51177 10.5911 3.95771 11.0928 4.96108 11.0928H5.01682H5.07256C5.1283 11.0928 5.23979 11.0927 5.23979 11.1485C5.23979 11.2042 5.18405 11.4272 4.96108 11.5944C4.73811 11.8174 4.51514 12.0404 4.18069 12.2633C3.90197 12.4863 3.51177 12.542 3.23306 12.7093C2.95435 12.765 2.56415 12.8765 2.28544 12.8765C1.56079 12.8765 1.05911 12.6535 0.668909 12.1518C0.278712 11.7059 1.70112e-06 11.1485 1.70112e-06 10.3681C1.70112e-06 10.0894 0.0557416 9.58771 0.167226 9.14177C0.222969 8.69583 0.44594 7.91544 0.668909 7.02356C0.724652 6.85633 0.724654 6.74482 0.836138 6.5776C0.891881 6.41037 0.89188 6.35463 0.89188 6.29888C0.66891 6.29888 0.44594 6.24315 0.390197 6.13166C0.334455 6.07592 0.222968 5.9087 0.222968 5.68573C0.222968 5.29553 0.390197 4.90535 0.668909 4.51515C0.780394 4.01347 1.17059 3.79049 1.67228 3.73474Z" transform="translate(62.7356 1.20459)" fill="black"/>
<path d="M3.45604 6.91206C3.51178 7.30226 3.73474 7.58098 4.23643 7.58098C4.73811 7.58098 5.35127 7.30225 6.13167 6.68908C6.57761 6.41037 6.91207 6.24315 7.07929 6.24315C7.30226 6.24315 7.46949 6.29888 7.58097 6.41037C7.7482 6.46611 7.80394 6.63334 7.80394 6.68908C7.80394 6.74482 7.7482 6.91208 7.52523 7.13505C7.24651 7.41376 6.74484 7.85969 6.35464 8.1384C5.9087 8.41712 5.40702 8.80729 5.07256 8.91878C4.68237 9.14175 4.18069 9.309 3.84623 9.36475C3.45603 9.53197 3.06584 9.58769 2.73138 9.58769C1.95099 9.58769 1.28208 9.36473 0.780396 8.86305C0.278714 8.36137 -3.40225e-06 7.74819 -3.40225e-06 6.96779C-3.40225e-06 6.29888 0.167231 5.74147 0.390201 4.96108C0.61317 4.18068 1.0591 3.51178 1.39356 2.84287C1.8395 2.06248 2.56415 1.4493 3.28881 0.947615C4.23643 0.278705 5.07256 -1.3609e-05 5.9087 -1.3609e-05C6.57761 -1.3609e-05 7.02355 0.222963 7.35801 0.668903C7.63672 1.0591 7.80394 1.61654 7.80394 2.28545C7.80394 2.73139 7.63671 3.28879 7.41374 3.90196C7.19077 4.40364 6.6891 5.01682 6.24316 5.5185C5.79722 5.96444 5.35128 6.29889 4.96108 6.52186C4.57088 6.74483 4.18069 6.80057 3.84623 6.80057C3.73475 6.9678 3.56752 6.96781 3.45604 6.91206ZM3.34454 6.52186C3.62326 6.29889 3.79048 6.13166 4.0692 5.85294C4.34791 5.46275 4.73811 4.90534 4.8496 4.40365C5.01682 4.12494 5.07257 3.62327 5.12831 3.23308C5.18405 2.78714 5.29553 2.34119 5.29553 2.00674C5.29553 1.72802 5.23979 1.50504 5.07256 1.50504C4.84959 1.50504 4.62662 1.95097 4.12494 2.78711C3.90197 3.28879 3.679 3.90197 3.45604 4.40365C3.28881 4.90534 3.23306 5.40702 3.23306 5.79721C3.2888 6.07593 3.2888 6.24315 3.34454 6.52186Z" transform="translate(68.6443 4.71631)" fill="black"/>
<path d="M6.57761 5.18406L6.63335 4.79386C6.85632 3.84624 7.02355 3.17731 7.13503 2.61989C7.30226 2.11821 7.41375 1.61652 7.58098 1.22633C7.7482 0.83613 7.85969 0.557438 8.02692 0.445953C8.24989 0.167241 8.8073 -1.3609e-05 9.47621 -1.3609e-05C9.75493 -1.3609e-05 9.9779 6.80284e-06 10.2009 0.0557493C10.3681 0.111492 10.4238 0.111485 10.4796 0.22297C10.2009 1.17059 9.9779 1.89526 9.81067 2.39694C9.75493 2.84288 9.5877 3.56752 9.42048 4.40365C9.19751 5.68573 9.14176 6.96781 9.14176 8.02691C9.14176 8.80731 9.1975 9.47622 9.36473 10.3681C9.42047 11.1485 9.64344 11.9846 10.0336 12.9322C9.75493 13.1552 9.36473 13.3782 9.03027 13.6012C8.75156 13.7684 8.36137 13.8799 8.08265 13.9914C7.80394 14.0471 7.58098 14.1586 7.30226 14.1586C6.91207 14.1586 6.63335 13.9356 6.52186 13.6569C6.35464 13.3782 6.2989 13.1552 6.2989 12.8765C6.24315 12.6535 6.24316 12.1519 6.07593 11.3715C5.18405 12.3191 4.40365 12.988 3.62326 13.5454C2.84286 13.9914 2.2297 14.3258 1.72802 14.3258C1.22634 14.3258 0.724652 14.1028 0.44594 13.6569C0.167227 13.2109 -1.70112e-06 12.6535 -1.70112e-06 11.9846C-1.70112e-06 11.3157 0.167224 10.7025 0.390194 9.86641C0.613164 9.08601 1.0591 8.4171 1.50504 7.63671C1.78375 7.19077 2.17396 6.74484 2.45267 6.46613C2.73138 6.18742 3.17732 5.79721 3.56752 5.5185C4.34791 5.07256 4.96108 4.73809 5.46276 4.73809C5.74147 4.68235 6.13167 4.90535 6.57761 5.18406ZM6.2989 9.75491V9.25325C6.02018 9.53197 5.62999 9.69919 5.51851 9.69919C5.46276 9.69919 5.35128 9.64345 5.35128 9.53197C5.35128 9.47622 5.35127 9.47621 5.40701 9.30898C5.57424 8.91878 5.62999 8.5286 5.62999 8.1384C5.62999 7.69246 5.57425 7.13503 5.35128 6.52186C5.29553 6.24315 5.12831 6.07593 5.07256 6.07593C5.01682 6.07593 4.90534 6.13166 4.90534 6.13166C4.68237 6.35463 4.51514 6.80059 4.23643 7.13505C4.01346 7.58099 3.95771 8.08265 3.79049 8.58434C3.62326 9.08602 3.56752 9.5877 3.56752 9.9779C3.56752 10.7583 3.79048 11.1485 4.29217 11.1485C4.51514 11.1485 4.79385 10.9813 5.23979 10.7583C5.57425 10.5353 5.9087 10.2009 6.2989 9.75491Z" transform="translate(76.8942 0.256836)" fill="black"/>
<path d="M5.5185 9.92215C5.35127 9.97789 5.23979 9.97791 5.23979 9.97791C5.01682 9.97791 4.84959 9.92216 4.73811 9.75493C4.57088 9.5877 4.51514 9.36472 4.51514 9.08601C4.51514 8.64007 4.73811 7.91543 5.01682 7.0793C5.29553 6.2989 5.79722 5.68573 6.18742 5.29553C6.46613 5.01682 6.85632 4.8496 7.19077 4.8496C7.46948 4.8496 7.69246 4.90534 7.97117 5.12831C8.19414 5.35128 8.24989 5.57423 8.41711 5.90869C8.47286 6.1874 8.58433 6.68909 8.58433 7.13503C8.58433 8.30562 8.36137 9.47623 7.80394 10.5353C7.30226 11.6502 6.63335 12.4306 5.79721 12.988C4.90533 13.6569 4.12494 13.9356 3.12158 13.9356C2.45267 13.9356 1.95098 13.7684 1.50504 13.4897C1.0591 13.211 0.613165 12.7093 0.390195 12.2076C0.167226 11.7059 0 11.037 0 10.2566C0 9.53197 0.0557424 8.80731 0.278712 7.91543C0.501682 7.02356 0.780393 6.24315 1.22633 5.29553C1.61653 4.34791 2.17396 3.51177 2.67564 2.67563C3.34455 1.72801 3.95771 1.05912 4.68236 0.501696C5.18404 0.111499 5.79722 0 6.2989 0C6.96781 0 7.30226 0.222983 7.7482 0.501696C8.02691 0.780408 8.24988 1.39356 8.24988 1.95099C8.24988 2.39693 8.08265 2.84286 7.80394 3.23306C7.52523 3.67899 7.02355 4.12495 6.57761 4.40367C6.13167 4.68238 5.57424 4.8496 5.1283 4.8496C4.90533 4.8496 4.84959 4.79386 4.84959 4.68238C4.84959 4.62664 4.90533 4.45938 5.1283 4.23641C5.40702 3.84622 5.62999 3.34454 5.9087 2.95434C6.13167 2.5084 6.18742 2.00673 6.18742 1.67227C6.18742 1.33782 6.13167 1.22634 6.02019 1.22634C5.85296 1.22634 5.74148 1.44932 5.35128 1.89526C5.12831 2.3412 4.90533 2.84286 4.57088 3.34455C4.12494 4.62662 3.62326 5.90869 3.40029 7.02353C3.17732 8.19413 3.01009 9.19749 3.01009 10.0894C3.01009 10.7583 3.06583 11.26 3.2888 11.7059C3.51177 12.1519 3.73475 12.3748 4.0692 12.3748C4.40366 12.3748 4.79385 12.1519 5.01682 11.7059C5.23979 11.3157 5.40701 10.7025 5.5185 9.92215Z" transform="translate(93.5054 0.201172)" fill="black"/>
<path d="M6.07593 2.78714L6.24316 2.39693C6.41039 1.72802 6.63335 1.22632 7.02355 0.947608C7.24652 0.724638 7.46948 0.557431 7.80394 0.445946C8.08265 0.278719 8.30563 0.222963 8.58434 0.222963C9.03028 0.222963 9.25325 0.445946 9.25325 0.724659C9.25325 0.947628 9.1975 1.17058 9.08602 1.61652C9.03027 2.00672 8.86305 2.39691 8.64008 2.89859C8.41711 3.34453 8.24988 3.90197 7.97117 4.51514C7.7482 5.18405 7.46949 5.68574 7.07929 6.2989C6.57761 7.46949 5.9087 8.47285 5.40702 9.14176C5.01682 9.64344 4.51513 10.1451 4.18068 10.5911C3.73474 11.037 3.23307 11.4829 2.89861 11.7617C2.56416 12.0404 1.95099 12.4306 1.61653 12.5421C1.22634 12.765 0.836135 12.765 0.445938 12.765C0.167226 12.765 -3.40225e-06 12.5978 -3.40225e-06 12.3748C-3.40225e-06 12.1518 0.0557407 11.9289 0.167226 11.6502C0.222968 11.3715 0.390194 11.1485 0.557421 10.8698C0.724648 10.6468 0.947625 10.4238 1.22634 10.2009C1.50505 9.97791 2.11821 9.75492 2.67564 9.42047C2.28544 8.75156 1.95099 8.24987 1.72802 7.91541C1.50505 7.52522 1.33782 7.02355 1.05911 6.46612C0.557426 5.23979 0.278709 4.06921 0.278709 3.06585C0.278709 2.28545 0.334451 1.67227 0.557421 1.17059C0.724648 0.780394 1.00337 0.445933 1.50505 0.222963C1.89525 0.0557356 2.22969 1.3609e-05 2.50841 1.3609e-05C2.8986 1.3609e-05 3.23306 0.167234 3.40029 0.445946C3.56752 0.724659 3.62326 1.44931 3.79048 2.67564C3.84623 3.90198 4.0692 5.1283 4.29217 6.35463C4.34791 6.5776 4.34791 6.80059 4.45939 7.13504H4.51514C4.68237 6.74484 4.79385 6.24316 5.01682 5.74148C5.07256 5.57425 5.29553 4.96108 5.74147 4.06921C5.85296 3.62327 6.02019 3.17733 6.07593 2.78714Z" transform="translate(102.647 4.88379)" fill="black"/>
</svg>
