<svg width="342" height="974" viewBox="0 0 342 974" version="1.1" xmlns="http://www.w3.org/2000/svg" xmlns:xlink="http://www.w3.org/1999/xlink">
<g id="Canvas" fill="none">
<g id="Vector">
<path d="M 168.652 522.382L 185.088 468.927L 135.031 496.233L 168.652 522.382Z" transform="translate(0.101562 0)" fill="black"/>
<path d="M 252.845 440.229L 207.094 425.257L 185.088 468.927L 252.845 440.229Z" transform="translate(0.101562 0)" fill="black"/>
<path d="M 281.65 480.033L 252.845 440.229L 255.271 503.565L 281.65 480.033Z" transform="translate(0.101562 0)" fill="black"/>
<path d="M 225.723 546.976L 255.271 503.565L 205.997 529.849L 225.723 546.976Z" transform="translate(0.101562 0)" fill="black"/>
<path d="M 238.218 468.927L 185.088 468.927L 255.271 503.565L 238.218 468.927Z" transform="translate(0.101562 0)" fill="black"/>
<path d="M 307.92 510.898L 255.271 503.565L 300.75 539.068L 307.92 510.898Z" transform="translate(0.101562 0)" fill="black"/>
<path d="M 296.305 433.222L 252.845 440.229L 309.893 480.033L 296.305 433.222Z" transform="translate(0.101562 0)" fill="black"/>
<path d="M 262.199 397.518L 199.954 376.529L 207.094 425.257L 262.199 397.518Z" transform="translate(0.101562 0)" fill="black"/>
<path d="M 135.031 496.233L 164.169 425.257L 90.2038 480.033L 135.031 496.233Z" transform="translate(0.101562 0)" fill="black"/>
<path d="M 126.812 546.976L 90.2038 480.033L 82.5551 526.458L 126.812 546.976Z" transform="translate(0.101562 0)" fill="black"/>
<path d="M 147.732 607.554L 190.318 564.968L 126.812 546.976L 147.732 607.554Z" transform="translate(0.101562 0)" fill="black"/>
<path d="M 190.318 564.968L 205.997 529.849L 168.652 522.382L 190.318 564.968Z" transform="translate(0.101562 0)" fill="black"/>
<path d="M 230.662 584.333L 190.318 564.968L 199.954 607.554L 230.662 584.333Z" transform="translate(0.101562 0)" fill="black"/>
<path d="M 230.662 584.333L 297.206 562.887L 225.723 546.976L 230.662 584.333Z" transform="translate(0.101562 0)" fill="black"/>
<path d="M 230.662 584.333L 225.723 546.976L 190.318 564.968L 230.662 584.333Z" transform="translate(0.101562 0)" fill="black"/>
<path d="M 190.318 672.553L 199.954 607.554L 147.732 607.554L 190.318 672.553Z" transform="translate(0.101562 0)" fill="black"/>
<path d="M 223.155 637.439L 190.318 672.553L 238.218 691.612L 223.155 637.439Z" transform="translate(0.101562 0)" fill="black"/>
<path d="M 281.65 710.507L 238.218 691.612L 262.496 787.976L 281.65 710.507Z" transform="translate(0.101562 0)" fill="black"/>
<path d="M 199.954 753.965L 135.031 710.507L 109.09 793.796L 199.954 753.965Z" transform="translate(0.101562 0)" fill="black"/>
<path d="M 262.496 787.976L 199.954 753.965L 182.037 827.312L 262.496 787.976Z" transform="translate(0.101562 0)" fill="black"/>
<path d="M 316.842 744.504L 303.128 726.568L 293.356 763.291L 316.842 744.504Z" transform="translate(0.101562 0)" fill="black"/>
<path d="M 316.842 720.899L 303.128 726.568L 322 730.803L 316.842 720.899Z" transform="translate(0.101562 0)" fill="black"/>
<path d="M 293.356 763.291L 296.681 841.113L 332.529 787.976L 293.356 763.291Z" transform="translate(0.101562 0)" fill="black"/>
<path d="M 341.729 841.113L 296.681 841.113L 325.3 900.258L 341.729 841.113Z" transform="translate(0.101562 0)" fill="black"/>
<path d="M 293.356 935.088L 252.354 891.715L 238.218 960.718L 293.356 935.088Z" transform="translate(0.101562 0)" fill="black"/>
<path d="M 296.681 841.113L 252.354 891.715L 325.3 900.258L 296.681 841.113Z" transform="translate(0.101562 0)" fill="black"/>
<path d="M 252.354 891.715L 182.037 827.312L 126.812 888.429L 252.354 891.715Z" transform="translate(0.101562 0)" fill="black"/>
<path d="M 126.812 888.429L 109.09 793.796L 43.1897 819.998L 126.812 888.429Z" transform="translate(0.101562 0)" fill="black"/>
<path d="M 0 837.17L 51.172 847.451L 43.1897 819.998L 0 837.17Z" transform="translate(0.101562 0)" fill="black"/>
<path d="M 0 837.17L 15.772 900.258L 51.172 847.451L 0 837.17Z" transform="translate(0.101562 0)" fill="black"/>
<path d="M 67.4293 701.06L 34.1726 739.908L 109.09 793.796L 67.4293 701.06Z" transform="translate(0.101562 0)" fill="black"/>
<path d="M 82.5551 648.164L 67.4293 701.06L 101.867 672.553L 82.5551 648.164Z" transform="translate(0.101562 0)" fill="black"/>
<path d="M 147.732 607.554L 82.5551 648.164L 147.732 669.683L 147.732 607.554Z" transform="translate(0.101562 0)" fill="black"/>
<path d="M 147.732 607.554L 73.0199 584.333L 82.5551 617.786L 147.732 607.554Z" transform="translate(0.101562 0)" fill="black"/>
<path d="M 47.6178 581.593L 73.0199 584.333L 52.1005 564.968L 42.388 569.022L 47.6178 581.593Z" transform="translate(0.101562 0)" fill="black"/>
<path d="M 47.6178 546.976L 52.1005 564.968L 56.2685 559.698L 47.6178 546.976Z" transform="translate(0.101562 0)" fill="black"/>
<path d="M 82.5551 526.458L 38.6523 490.256L 47.6178 546.976L 82.5551 526.458Z" transform="translate(0.101562 0)" fill="black"/>
<path d="M 90.2038 480.033L 52.1005 433.222L 38.6523 490.256L 90.2038 480.033Z" transform="translate(0.101562 0)" fill="black"/>
<path d="M 113.364 425.257L 90.2038 393.131L 52.1005 433.222L 113.364 425.257Z" transform="translate(0.101562 0)" fill="black"/>
<path d="M 113.364 425.257L 146.507 376.529L 90.2038 393.131L 113.364 425.257Z" transform="translate(0.101562 0)" fill="black"/>
<path d="M 164.169 425.257L 199.954 376.529L 146.507 376.529L 164.169 425.257Z" transform="translate(0.101562 0)" fill="black"/>
<path d="M 61.774 944.946L 97.2613 960.718L 73.0199 923.916L 61.774 944.946Z" transform="translate(0.101562 0)" fill="black"/>
<path d="M 73.0199 923.916L 15.772 900.258L 61.774 944.946L 73.0199 923.916Z" transform="translate(0.101562 0)" fill="black"/>
<path d="M 126.812 888.429L 172.179 973.861L 208.323 960.718L 126.812 888.429Z" transform="translate(0.101562 0)" fill="black"/>
<path d="M 262.496 648.164L 262.496 617.786L 223.155 637.439L 262.496 648.164Z" transform="translate(0.101562 0)" fill="black"/>
<path d="M 262.496 617.786L 230.662 584.333L 223.155 637.439L 262.496 617.786Z" transform="translate(0.101562 0)" fill="black"/>
<path d="M 148.566 319.908L 173.227 332.057L 197.506 301.765L 148.566 319.908Z" transform="translate(0.101562 0)" fill="black"/>
<path d="M 146.507 376.529L 199.954 376.529L 173.227 332.057L 146.507 376.529Z" transform="translate(0.101562 0)" fill="black"/>
<path d="M 150.509 266.453L 197.506 301.765L 196.258 263.665L 176.467 264.871L 150.509 266.453Z" transform="translate(0.101562 0)" fill="black"/>
<path d="M 176.467 264.871L 194.416 207.433L 176.467 219.005L 151.652 235.003L 176.467 264.871Z" transform="translate(0.101562 0)" fill="black"/>
<path d="M 192.874 160.344L 154.366 160.344L 176.467 219.005L 192.874 160.344Z" transform="translate(0.101562 0)" fill="black"/>
<path d="M 154.366 144.916L 196.586 138.07L 152.37 133.791L 154.366 144.916Z" transform="translate(0.101562 0)" fill="black"/>
<path d="M 123.843 148.054L 154.366 144.916L 152.37 133.791L 123.843 148.054Z" transform="translate(0.101562 0)" fill="black"/>
<path d="M 91.3222 150.907L 120.134 160.344L 118.774 146.054L 102.22 139.519L 91.3222 150.907Z" transform="translate(0.101562 0)" fill="black"/>
<path d="M 116.711 124.377L 91.3222 135.217L 102.22 139.519L 116.711 124.377Z" transform="translate(0.101562 0)" fill="black"/>
<path d="M 94.7454 99.5587L 112.147 111.54L 116.268 94.4651L 112.657 91.9296L 94.7454 99.5587Z" transform="translate(0.101562 0)" fill="black"/>
<path d="M 125.554 86.4364L 120.134 78.4489L 117.364 89.9248L 125.554 86.4364Z" transform="translate(0.101562 0)" fill="black"/>
<path d="M 123.843 133.791L 116.711 124.377L 118.774 146.054L 123.843 148.054L 123.843 133.791Z" transform="translate(0.101562 0)" fill="black"/>
<path d="M 141.881 93.8724L 125.554 86.4364L 125.554 100.985L 141.881 93.8724Z" transform="translate(0.101562 0)" fill="black"/>
<path d="M 154.366 99.5587L 154.366 88.4333L 141.881 93.8724L 154.366 99.5587Z" transform="translate(0.101562 0)" fill="black"/>
<path d="M 158.36 60.7622L 154.366 88.4333L 190.31 83.869L 158.36 60.7622Z" transform="translate(0.101562 0)" fill="black"/>
<path d="M 140.103 27.1005L 158.36 60.7622L 171.018 48.9448L 140.103 27.1005Z" transform="translate(0.101562 0)" fill="black"/>
<path d="M 174.05 0L 154.366 27.1005L 180.157 27.1005L 174.05 0Z" transform="translate(0.101562 0)" fill="black"/>
<path d="M 182.636 38.0987L 194.416 27.1005L 180.157 27.1005L 182.636 38.0987Z" transform="translate(0.101562 0)" fill="black"/>
<path d="M 176.509 49.4324L 184.119 44.6815L 182.636 38.0987L 173.618 46.5172L 176.509 49.4324Z" transform="translate(0.101562 0)" fill="black"/>
<path d="M 187.743 60.7622L 207.712 29.9532L 184.119 44.6815L 187.743 60.7622Z" transform="translate(0.101562 0)" fill="black"/>
<path d="M 218.837 83.869L 221.405 92.1418L 236.545 78.8116L 218.837 70.7466L 218.837 83.869Z" transform="translate(0.101562 0)" fill="black"/>
<path d="M 218.837 70.7466L 190.31 74.1698L 190.31 83.869L 218.837 70.7466Z" transform="translate(0.101562 0)" fill="black"/>
<path d="M 247.649 83.869L 247.649 69.035L 236.545 78.8116L 247.649 83.869Z" transform="translate(0.101562 0)" fill="black"/>
<path d="M 154.366 99.5587L 194.416 124.377L 194.416 111.54L 154.366 99.5587Z" transform="translate(0.101562 0)" fill="black"/>
<path d="M 194.416 111.54L 208.588 117.636L 221.405 111.54L 194.416 111.54Z" transform="translate(0.101562 0)" fill="black"/>
<path d="M 194.416 124.377L 224.257 124.377L 208.588 117.636L 194.416 124.377Z" transform="translate(0.101562 0)" fill="black"/>
<path d="M 251.073 126.945L 251.073 106.69L 239.023 114.638L 251.073 126.945Z" transform="translate(0.101562 0)" fill="black"/>
<path d="M 224.257 124.377L 224.257 133.791L 239.023 114.638L 224.257 124.377Z" transform="translate(0.101562 0)" fill="black"/>
<path d="M 251.073 106.69L 224.257 99.5587L 239.023 114.638L 251.073 106.69Z" transform="translate(0.101562 0)" fill="black"/>
<path d="M 154.366 99.5587L 152.37 133.791L 194.416 124.377L 154.366 99.5587Z" transform="translate(0.101562 0)" fill="black"/>
<path d="M 205.997 529.849L 185.088 468.927L 168.652 522.382L 205.997 529.849Z" transform="translate(0.101562 0)" fill="black"/>
<path d="M 27.6008 720.899L 21.6864 730.803L 34.1726 739.908L 27.6008 720.899Z" transform="translate(0.101562 0)" fill="black"/>
<path d="M 67.4293 701.06L 42.388 720.899L 34.1726 739.908L 67.4293 701.06Z" transform="translate(0.101562 0)" fill="black"/>
<path d="M 109.09 793.796L 11.1716 793.796L 43.1897 819.998L 109.09 793.796Z" transform="translate(0.101562 0)" fill="black"/>
<path d="M 126.812 888.429L 51.172 847.451L 73.0199 923.916L 126.812 888.429Z" transform="translate(0.101562 0)" fill="black"/>
<path d="M 135.031 960.718L 126.812 888.429L 73.0199 923.916L 135.031 960.718Z" transform="translate(0.101562 0)" fill="black"/>
<path d="M 135.031 710.507L 147.732 669.683L 101.867 672.553L 135.031 710.507Z" transform="translate(0.101562 0)" fill="black"/>
<path d="M 190.318 672.553L 135.031 710.507L 199.954 753.965L 190.318 672.553Z" transform="translate(0.101562 0)" fill="black"/>
<path d="M 73.0199 584.333L 82.5551 526.458L 56.2685 559.698L 73.0199 584.333Z" transform="translate(0.101562 0)" fill="black"/>
<path d="M 296.305 433.222L 262.199 397.518L 252.845 440.229L 296.305 433.222Z" transform="translate(0.101562 0)" fill="black"/>
<path d="M 287.171 581.593L 230.662 584.333L 273.955 591.425L 287.171 581.593Z" transform="translate(0.101562 0)" fill="black"/>
<path d="M 299.904 584.333L 297.206 562.887L 287.171 581.593L 299.904 584.333Z" transform="translate(0.101562 0)" fill="black"/>
<path d="M 262.496 648.164L 223.155 637.439L 238.218 691.612L 262.496 648.164Z" transform="translate(0.101562 0)" fill="black"/>
<path d="M 262.496 787.976L 252.354 891.715L 296.681 841.113L 262.496 787.976Z" transform="translate(0.101562 0)" fill="black"/>
<path d="M 238.218 960.718L 126.812 888.429L 208.323 960.718L 238.218 960.718Z" transform="translate(0.101562 0)" fill="black"/>
<path d="M 168.652 522.382L 135.031 496.233L 126.812 546.976L 168.652 522.382Z" transform="translate(0.101562 0)" fill="black"/>
<path d="M 309.893 480.033L 281.65 480.033L 307.92 510.898L 309.893 480.033Z" transform="translate(0.101562 0)" fill="black"/>
<path d="M 185.088 468.927L 207.094 425.257L 164.169 425.257L 185.088 468.927Z" transform="translate(0.101562 0)" fill="black"/>
</g>
</g>
</svg>

