<svg width="37" height="34" viewBox="0 0 37 34" fill="none" xmlns="http://www.w3.org/2000/svg">
<path fill-rule="evenodd" clip-rule="evenodd" d="M15.5739 10.3662V0L8.95612 6.46387L15.5739 10.3662ZM15.5739 14.2983L5.39746 8.29736H0V17.7363H7.07904L15.5739 25.5688V14.2983Z" transform="translate(0.786133 4.23096)" fill="#EDB4B4"/>
<path fill-rule="evenodd" clip-rule="evenodd" d="M1.14349 10.3979C0.855957 10.8438 0.567749 11.1729 0.351624 11.3647C-0.0823364 11.7495 -0.11969 12.4111 0.268188 12.8423C0.656067 13.2729 1.32227 13.3101 1.75623 12.9248C2.11584 12.606 2.54742 12.1108 2.95599 11.4668L1.14349 10.3979ZM4.21954 8.28027C4.32556 7.73242 4.38666 7.14893 4.38666 6.53418C4.38666 4.94922 3.97949 3.57471 3.45239 2.50684C2.93604 1.46045 2.27112 0.64209 1.68347 0.207031C1.21667 -0.138184 0.556396 -0.0419922 0.20874 0.421387C-0.138916 0.884766 -0.0423584 1.54053 0.424438 1.88574C0.670471 2.06787 1.14496 2.5874 1.55957 3.42773C1.9635 4.24609 2.27887 5.30713 2.27887 6.53418C2.27887 6.73438 2.27045 6.93066 2.25458 7.12158L4.21954 8.28027Z" transform="translate(19.8699 10.875)" fill="#EDB4B4"/>
<path fill-rule="evenodd" clip-rule="evenodd" d="M0.788208 14.4795C0.630554 14.6611 0.482483 14.811 0.351624 14.9272C-0.0823364 15.312 -0.11969 15.9736 0.268188 16.4048C0.656067 16.8354 1.32227 16.8726 1.75623 16.4873C2.02008 16.2529 2.31647 15.9424 2.62109 15.5605L0.788208 14.4795ZM4.29962 12.6182C4.78357 11.3828 5.1181 9.9248 5.1181 8.29541C5.1181 6.25928 4.59497 4.49414 3.91846 3.12305C3.25269 1.77393 2.40491 0.740723 1.68347 0.207031C1.21667 -0.138184 0.556396 -0.0419922 0.20874 0.421387C-0.138916 0.884766 -0.0423584 1.54053 0.424438 1.88574C0.804321 2.1665 1.46167 2.90088 2.0257 4.04395C2.57898 5.16553 3.01031 6.61719 3.01031 8.29541C3.01031 9.50391 2.78619 10.5933 2.45667 11.5312L4.29962 12.6182Z" transform="translate(24.1266 9.09424)" fill="#EDB4B4"/>
<path fill-rule="evenodd" clip-rule="evenodd" d="M1.63855 0.175781C1.1543 -0.144531 0.499939 -0.0146484 0.177124 0.466309C-0.145752 0.946777 -0.0148926 1.59668 0.469421 1.91699C1.13245 2.35596 2.17029 3.41504 3.04327 4.99854C3.90564 6.56299 4.57281 8.57861 4.57281 10.9023C4.57281 13.208 3.91425 15.209 3.06927 16.7856L4.88324 17.8555C5.89825 15.9927 6.6806 13.6313 6.6806 10.9023C6.6806 8.17676 5.89789 5.81787 4.89215 3.99365C3.89703 2.18848 2.64844 0.844238 1.63855 0.175781ZM2.92908 20.6353L1.07593 19.5425C0.832642 19.791 0.602295 19.999 0.39563 20.1631C-0.0588379 20.5239 -0.132568 21.1826 0.231079 21.6338C0.594666 22.085 1.25787 22.1582 1.71234 21.7974C2.08069 21.5049 2.49744 21.1147 2.92908 20.6353Z" transform="translate(27.9033 6.45508)" fill="#EDB4B4"/>
<path fill-rule="evenodd" clip-rule="evenodd" d="M0 0.999293C0 0.447399 0.382756 0 0.854909 0H37.128C37.6002 0 37.9829 0.447399 37.9829 0.999293C37.9829 1.55119 37.6002 1.99859 37.128 1.99859H0.854909C0.382756 1.99859 0 1.55119 0 0.999293Z" transform="translate(1.91418 6.88477) rotate(30.5267)" fill="#EDB4B4"/>
</svg>
