<svg width="37" height="34" viewBox="0 0 37 34" fill="none" xmlns="http://www.w3.org/2000/svg">
<path d="M15.5739 0V25.5688L7.07904 17.7365H0V8.29748H7.07904L15.5739 0Z" transform="translate(0.786133 4.23096)" fill="#EDB4B4"/>
<path fill-rule="evenodd" clip-rule="evenodd" d="M0.177111 0.466089C0.499969 -0.0147783 1.15429 -0.144718 1.63858 0.17586C2.64846 0.844361 3.89701 2.18855 4.89215 3.9937C5.89789 5.81806 6.68059 8.17654 6.68059 10.9026C6.68059 16.3381 3.57661 20.3163 1.71234 21.7972C1.25785 22.1583 0.594648 22.0851 0.23105 21.6338C-0.132549 21.1825 -0.0588599 20.524 0.395638 20.163C1.87726 18.986 4.57283 15.5667 4.57283 10.9026C4.57283 8.57877 3.90565 6.56295 3.04326 4.99861C2.17028 3.41506 1.13247 2.35615 0.469405 1.91724C-0.0148834 1.59666 -0.145748 0.946957 0.177111 0.466089Z" transform="translate(27.9033 6.45508)" fill="#EDB4B4"/>
<path fill-rule="evenodd" clip-rule="evenodd" d="M0.208742 0.421427C0.556416 -0.0420683 1.21667 -0.137951 1.68346 0.207267C2.4049 0.740812 3.25269 1.77395 3.91847 3.12321C4.59498 4.49423 5.1181 6.25943 5.1181 8.29542C5.1181 12.3495 3.04753 15.3415 1.75625 16.4875C1.32228 16.8726 0.656047 16.8355 0.268175 16.4046C-0.119696 15.9737 -0.0823268 15.3122 0.351641 14.927C1.263 14.1182 3.01034 11.6694 3.01034 8.29542C3.01034 6.61736 2.57898 5.16534 2.02569 4.04403C1.46166 2.90097 0.804305 2.16668 0.424425 1.88573C-0.0423676 1.54052 -0.138932 0.884923 0.208742 0.421427Z" transform="translate(24.1266 9.09424)" fill="#EDB4B4"/>
<path fill-rule="evenodd" clip-rule="evenodd" d="M0.208742 0.421427C0.556416 -0.0420684 1.21667 -0.137951 1.68346 0.207267C2.2711 0.641856 2.93602 1.46026 3.45238 2.50671C3.97948 3.57492 4.38663 4.94924 4.38663 6.534C4.38663 9.68563 2.77992 12.0166 1.75625 12.925C1.32228 13.3102 0.656047 13.2731 0.268175 12.8422C-0.119696 12.4113 -0.0823268 11.7497 0.351642 11.3646C0.99539 10.7933 2.27887 9.0055 2.27887 6.534C2.27887 5.30718 1.96348 4.24604 1.5596 3.42754C1.14498 2.58728 0.670499 2.06772 0.424425 1.88573C-0.0423676 1.54052 -0.138932 0.884923 0.208742 0.421427Z" transform="translate(19.8699 10.875)" fill="#EDB4B4"/>
</svg>
