<svg width="35" height="73" viewBox="0 0 35 73" version="1.1" xmlns="http://www.w3.org/2000/svg" xmlns:xlink="http://www.w3.org/1999/xlink">
<g id="Canvas" fill="none">
<g id="Group">
<path id="Vector" d="M 15.7294 70.6825C 16.8451 68.7699 16.1544 67.0166 14.9856 65.4759C 13.8167 63.9351 12.2228 63.2444 10.2571 63.6163C 8.02563 64.0414 7.0693 66.2197 8.18502 68.1323C 8.61005 68.8761 8.45066 69.1949 7.60059 69.3012C 5.31603 69.6199 3.56277 68.4511 3.40338 66.1665C 3.29712 64.9446 3.4565 63.6163 3.77528 62.3944C 4.62535 58.9941 6.69739 56.3376 8.92883 53.7343C 12.7541 49.3245 16.5263 44.9148 20.2454 40.3988C 21.0954 39.3894 21.9455 39.3362 22.955 39.8675C 23.0081 39.7613 23.1144 39.655 23.1144 39.655C 22.3174 38.6455 22.7956 38.008 23.5394 37.1579C 26.9928 33.5983 30.0212 29.6667 32.6245 25.4695C 36.5561 19.0408 36.6092 12.5059 32.9964 5.97099C 32.4651 5.01466 31.8276 4.05833 31.2432 3.10201C 30.6587 2.51758 30.0212 1.88003 29.4368 1.29561C 29.3305 1.29561 29.2242 1.29561 29.1711 1.29561C 25.6114 -0.192014 22.1049 -0.829565 18.7046 1.77377C 18.6515 1.8269 18.5984 1.8269 18.5452 1.8269C 17.9608 2.41132 17.3233 3.04888 16.7388 3.6333C 16.5263 4.11146 16.3138 4.58963 16.1544 5.06779C 15.0387 8.36181 17.217 12.0277 21.6799 11.9215C 23.4863 11.8683 25.3989 9.37127 25.1864 7.618C 25.1333 7.19297 24.8145 6.7148 24.5489 6.3429C 24.0176 5.65221 24.0176 4.9084 24.8145 4.58963C 26.0365 4.11146 27.3116 3.84582 28.5867 3.58017C 28.7461 3.52704 29.0117 3.89895 29.1711 4.11146C 31.3494 7.03358 31.7213 10.3276 30.9244 13.781C 29.9149 18.1376 27.7897 21.9629 24.8676 25.3101C 21.733 28.8697 18.4921 32.3231 15.2512 35.8297C 15.0387 36.0422 14.6137 36.0953 14.348 36.0953C 14.0292 36.0953 13.7105 35.9359 13.0729 35.7766C 14.7731 37.5298 13.3917 38.4861 12.5416 39.5487C 9.56638 43.1615 6.48488 46.6149 3.77528 50.3871C 1.54385 53.4686 0.428132 57.0814 0.0562266 60.9067C -0.20942 63.5101 0.481263 65.954 1.8095 68.1855C 2.02201 68.5574 2.23453 68.9293 2.39392 69.3012C 3.24399 70.1512 4.09406 71.0013 4.891 71.7983C 5.10352 71.9045 5.31603 72.0108 5.47542 72.117C 8.23814 73.764 11.0009 74.5079 13.923 72.3827C 13.9761 72.3296 14.0292 72.3827 14.1355 72.3295C 14.6137 71.7983 15.1981 71.267 15.7294 70.6825Z" transform="matrix(0.85331 0.521404 0.521404 -0.85331 -15.7674 58.7433)" fill="#333333"/>
</g>
</g>
</svg>
